<?xml version="1.0" encoding="UTF-8"?><svg id="Layer_1" xmlns="http://www.w3.org/2000/svg" viewBox="0 0 260 318"><path d="M178.23,218.92c-1.52-5.83-12.49-10.11-18.43-10-5.38.1-11.07,2.37-14.88,6.05-7.55,7.28-8.5,18.25-4.57,27.57.89,2.1,2.09,3.37,4.08,3.32,5.42-.15,3.59-6.64,4.4-8.82,1.78-.85,4.42.69,5.79-.45,1.89-1.58,4.42-1.26,6.21-2.4,5.23-3.32,10.28-13.27,12.52-11.2-6.28,9.81-12.78,13.41-22.53,18.95,1.85.98,2.86-.21,4.21-.97,4.46-2.49,10.09-2.07,14.5.64,2.58,1.58,5.19,1.89,7.89,3.02,9.06,3.77,15.71,11.48,20.26,19.96,3.1,5.77,6.9,11,7.68,17.55l2.04,17.16c.86,7.24-1.2,14.07-2.42,21.12-.52,2.98-.46,5.46-4.11,6.25-4.83,1.05-9.82,1.7-14.99,2.12l-53.73,4.3-24.63,2.74c-6.09.68-47.56,1.89-51.21-2.18-1.06-1.18-.52-3.63-.47-5.27-4.86-3.91-6.45-10.18-3.43-15.92,2.53-4.82,2.79-10.02,2.91-15.27.26-11.16,5.49-20.56,10.96-29.88,3.46-5.89,10.34-19.22,19.55-14.81,5.36,2.56,11.44,5.78,17.73,5.5,6.73-.31,13.12-1.29,19.79-2.3,4-.61,8.46-2.89,11.54-5.21,2.4-1.82,3.77-3.97,6.59-5.42-16.48,3.96-35.83,5.38-49.5-4.83-.73-.89.04-1.85.26-2.97,2.55-13-6.25-28.79-17.63-35.06-2.81-1.55-5.71-2.14-8.59-1.64,2.14-9.39,5.58-11.81,6.9-22.1,2.01-15.71-4.48-16.16-2.86-31.57.84-7.97,2.53-15.5,5.1-22.98,3.52-10.27,13.98-14.51,23.79-17.19,6.75-1.84,13.29-3.85,20.1-5.29,7.56-1.6,14.45.4,21.75,2.12,8.8,2.08,16.78,4.5,24.61,9.22,8.71,5.24,16.46,11.97,20.69,21.52,4.69,10.58,6.55,21.91,7.78,33.13,3.93-1.43,8.23-2.72,11.96-1.25,9.95,3.91,14.03,14.59,10.69,24.45-5.59,16.51-21.76,27.56-38.3,28.31Z" fill="#e75b3a"/><path d="M178.23,218.92c-.23,2.64-2.61,4.24-4.88,4.07-2.24-2.07-7.29,7.87-12.52,11.2-1.79,1.14-4.32.82-6.21,2.4-1.37,1.14-4.01-.41-5.79.45-.81,2.18,1.02,8.67-4.4,8.82-1.99.06-3.2-1.22-4.08-3.32-3.94-9.33-2.98-20.29,4.57-27.57,3.81-3.68,9.5-5.95,14.88-6.05,5.93-.11,16.9,4.17,18.43,10Z" fill="#fb7447"/><path d="M91.99,240.22c-.74-.13-1.92.25-2.88-.09-.78-.28-.83-1.46-1.53-2.27-2.06-2.39-4.99-3.37-6.57-5.8-1.71-2.64-4.31-4.7-6.45-7.37-5.18-6.43-8.45-13.47-9.32-21.42.27-.89-.13-2.07.79-2.72,2.88-.5,5.78.09,8.59,1.64,11.38,6.27,20.18,22.06,17.63,35.06-.22,1.12-1,2.08-.26,2.97Z" fill="#fb7447"/><path d="M81.01,232.06c-5.98-3.49-10.65-8.87-13.12-15.69-5.05-2.92-3.98-8.75-2.65-13.1.87,7.95,4.14,14.99,9.32,21.42,2.15,2.67,4.74,4.73,6.45,7.37Z" fill="#e75b3a"/><path d="M156.72,243.43c-12.87,7.5-25.99,12.89-40.24,16.19-10.49,2.43-25.81-2.38-36.42-6.05-15.93,12.83-21.92,38.21-23.6,57.76-1.07,12.41,3.88,22.24-3.28,22.66-2.15.13-4.52-1.5-4.83-4.13-.78-6.49-1.38-13.03-.79-19.76,1.73-19.77,8.41-46.97,23.51-60.59l9.32-8.4c-2.13-2.36-4.85-3.6-7.06-5.66-7.62-7.11-11.34-17.06-12.09-27.43-1.14-15.91,6.24-22.86,5.39-34.98-.26-3.7-1.57-6.99-2.27-10.64-2.93-15.22-.04-30.8,9.54-43.16,4.95-6.39,11.59-10.44,18.93-13.79,28.94-13.18,63.7-11.44,87.99,10.22,13.86,12.49,17.05,28.2,17.88,46.64,10.41-2.24,19.88,3.45,22.48,13.66,3.57,14.04-2.04,30.57-14.67,38.8-7.21,4.04-14.93,5.92-23.49,6.06-3.74,4.98-7.93,8.72-13.02,13.58,11.61,1.44,21.03,6.31,28,14.87,16.8,20.62,17.05,48.46,10.25,72.94-.8,2.88-3.91,4.32-5.84,3.74-3.58-1.09-3.47-3.98-2.64-7.01,5.44-19.88,5.74-40.58-4.93-58.72-7.88-13.4-22.45-18.71-38.12-16.79ZM202.28,207.3c14.22-9.31,14.52-32.72,5.25-35.98-7.38-2.6-14.8,2.43-17.48,9.25-1.13,2.86-4.65,3.49-6.57,2.62-7.31-3.34,3.88-13.91,6.29-17.23,1.1-8.18-.44-16.44-2.51-24.36-5.76-22.1-30.5-34.62-52.18-35.84-16.19-.91-32.47,2.82-45.94,11.44-7.83,5.01-12.84,12.03-15.48,20.58-5.21,16.9,1.28,27.93,1.57,35.25.27,6.67-1.63,13.36-3.67,19.59-5.51,16.8-.02,36.19,17.39,43.91,19.77,8.77,42.61,7.6,62.36-.71,10.79-4.54,19.29-12.62,26.17-21.79,2.95-3.93,12.99,1,24.79-6.72Z" fill="#222832"/><path d="M78.19,340.19c.07,1.94-4.2,2.53-5.36,1.75s-3.39-2.09-3.52-4.33c-.81-14.78,1.01-45.27,8.21-58.47,1.21-2.21,3.76-2.97,6.04-1.96,1.89.84,3.24,3.81,1.92,6.11-1.76,3.06-2.22,6.06-3.04,9.46-3.75,15.6-4.83,31.2-4.26,47.46Z" fill="#222832"/><path d="M157.03,327.36c1.29,2.79-.66,5.34-2.77,6.07-2.47.85-4.47-.56-5.66-3.06-6.85-14.43-9.14-31.37-11.79-46.94-.46-2.7,1.42-4.92,3.49-5.31,2.82-.52,4.87,1.15,5.36,4.05l2.99,17.58c1.63,9.56,4.19,18.55,8.37,27.61Z" fill="#222832"/><path d="M205.94,191.69c-5.26,4.19-13.09,12.25-16.42,7-.92-1.44-.9-4.03.86-5.44,3.59-2.88,7.07-5.66,10.84-8.34,1.93-1.37,4.61-.6,5.67.91,1.32,1.88.95,4.37-.94,5.87Z" fill="#222832"/><path d="M107.7,194.13c2.45-.74,4.39.7,4.92,2.28.76,2.28-.51,4.49-2.08,5.03-2.33.8-4.32-.11-5.09-1.76-1-2.13-.43-4.74,2.25-5.56Z" fill="#fb7447"/></svg>