<?xml version="1.0" encoding="UTF-8"?><svg id="Layer_1" xmlns="http://www.w3.org/2000/svg" viewBox="0 0 260 318"><path d="M179.67,218.82c1.32-3.85-2.83-5.79-5.67-7.28-13.31-6.98-30.01-2.49-35.41,12.18-1.98,5.37-1.61,24.58,7,22.44,3.84-.95,2.73-6.59,3.57-7.97,1.37-2.24,7.36.46,13.13-5.15l10.98-10.02c-4.3,7.43-11.03,12.25-18.84,17.13,5.69-.52,10.23-1.74,14.68,1.23,2.71,1.81,5.9,2.13,8.79,3.41,8.87,3.95,15.32,11.44,19.8,19.79,3.09,5.76,6.9,11,7.68,17.55l2.04,17.16c.89,7.46-1.32,14.42-2.53,21.53-.47,2.76-.44,5.08-3.99,5.84-5.02,1.08-10.24,1.75-15.59,2.18l-53.7,4.31-24.66,2.72c-6.24.69-46.53,1.79-50.62-2.2-1.25-1.22-.26-3.84-.52-5.16-10.65-10.27-.87-16.47-.81-25.16s1.17-16.1,4.57-23.7c2.01-4.51,4.68-8.44,7.01-12.78,3.39-6.32,10.51-18.58,19.25-14.38,16.25,7.82,17.78,5.94,37.52,3.24,3.33-.45,13.86-4.71,14.98-9.76-16.23,2.87-31.02,3.94-44.31-4.35-.61-2.42.92-4.79.6-7.69-1.42-13.09-8.26-25.26-18.71-32.96-3-2.21-6.06-3.25-9.31-2.49l5.51-15.12c1.15-3.16.81-6.89,1.21-10.35.81-6.93-4.83-13.37-3.22-26.77.95-7.89,2.58-15.44,5.24-22.84,3.1-8.6,12.15-13.45,20.48-15.79l18.11-5.08c9.12-2.56,17.41-1.48,26.33.82s17.48,4.64,25.59,9.66c8.49,5.25,16.09,11.86,20.25,21.28,4.68,10.58,6.56,21.91,7.77,33.12,3.94-1.45,8.2-2.7,11.96-1.23,9.94,3.87,14.04,14.58,10.7,24.46-5.44,16.06-20.82,26.9-36.87,28.2ZM154.34,240.53c0-.19-.15-.34-.34-.34s-.34.15-.34.34.15.34.34.34.34-.15.34-.34ZM152.03,241.9c0-.24-.19-.44-.44-.44s-.44.19-.44.44.19.44.44.44.44-.19.44-.44ZM139.26,246.02c0-.19-.15-.34-.34-.34s-.34.15-.34.34.15.34.34.34.34-.15.34-.34Z" fill="#c1855b"/><path d="M179.67,218.82c-.93,2.72-4.47,3.97-6.4,4.21l-10.98,10.02c-5.77,5.61-11.76,2.91-13.13,5.15-.84,1.38.26,7.02-3.57,7.97-8.61,2.13-8.98-17.07-7-22.44,5.41-14.67,22.11-19.16,35.41-12.18,2.83,1.49,6.99,3.43,5.67,7.28Z" fill="#fb7447"/><path d="M94.01,241.62c-1.28-.8-3.23,1.83-5.91.61-.8-.36-2.37-1.4-2.12-2.59.59-2.74-1.93-3.08-2.61-4.39-1.66-3.15-4.16-3.46-6.5-5.33-4.24-3.39-6.84-9-9.91-13.3-4.7-6.56-2.66-11.87-.37-18.14,3.25-.77,6.31.28,9.31,2.49,10.46,7.7,17.29,19.87,18.71,32.96.31,2.9-1.22,5.27-.6,7.69Z" fill="#fb7447"/><circle cx="151.6" cy="241.9" r=".44" fill="#f0f"/><circle cx="154" cy="240.53" r=".34" fill="#f0f"/><circle cx="138.91" cy="246.02" r=".34" fill="#f0f"/><path d="M156.72,243.43c-12.87,7.5-25.99,12.89-40.24,16.19-10.49,2.43-25.81-2.38-36.42-6.05-15.93,12.83-21.92,38.21-23.6,57.76-1.07,12.41,3.88,22.24-3.28,22.66-2.15.13-4.52-1.5-4.83-4.13-.78-6.49-1.38-13.03-.79-19.76,1.73-19.77,8.41-46.97,23.51-60.59l9.32-8.4c-2.13-2.36-4.85-3.6-7.06-5.66-7.62-7.11-11.34-17.06-12.09-27.43-1.14-15.91,6.24-22.86,5.39-34.98-.26-3.7-1.57-6.99-2.27-10.64-2.93-15.22-.04-30.8,9.54-43.16,4.95-6.39,11.59-10.44,18.93-13.79,28.94-13.18,63.7-11.44,87.99,10.22,13.86,12.49,17.05,28.2,17.88,46.64,10.41-2.24,19.88,3.45,22.48,13.66,3.57,14.04-2.04,30.57-14.67,38.8-7.21,4.04-14.93,5.92-23.49,6.06-3.74,4.98-7.93,8.72-13.02,13.58,11.61,1.44,21.03,6.31,28,14.87,16.8,20.62,17.05,48.46,10.25,72.94-.8,2.88-3.91,4.32-5.84,3.74-3.58-1.09-3.47-3.98-2.64-7.01,5.44-19.88,5.74-40.58-4.93-58.72-7.88-13.4-22.45-18.71-38.12-16.79ZM202.28,207.3c14.22-9.31,14.52-32.72,5.25-35.98-7.38-2.6-14.8,2.43-17.48,9.25-1.13,2.86-4.65,3.49-6.57,2.62-7.31-3.34,3.88-13.91,6.29-17.23,1.1-8.18-.44-16.44-2.51-24.36-5.76-22.1-30.5-34.62-52.18-35.84-16.19-.91-32.47,2.82-45.94,11.44-7.83,5.01-12.84,12.03-15.48,20.58-5.21,16.9,1.28,27.93,1.57,35.25.27,6.67-1.63,13.36-3.67,19.59-5.51,16.8-.02,36.19,17.39,43.91,19.77,8.77,42.61,7.6,62.36-.71,10.79-4.54,19.29-12.62,26.17-21.79,2.95-3.93,12.99,1,24.79-6.72Z" fill="#222832"/><path d="M78.19,340.19c.07,1.94-4.2,2.53-5.36,1.75s-3.39-2.09-3.52-4.33c-.81-14.78,1.01-45.27,8.21-58.47,1.21-2.21,3.76-2.97,6.04-1.96,1.89.84,3.24,3.81,1.92,6.11-1.76,3.06-2.22,6.06-3.04,9.46-3.75,15.6-4.83,31.2-4.26,47.46Z" fill="#222832"/><path d="M157.03,327.36c1.29,2.79-.66,5.34-2.77,6.07-2.47.85-4.47-.56-5.66-3.06-6.85-14.43-9.14-31.37-11.79-46.94-.46-2.7,1.42-4.92,3.49-5.31,2.82-.52,4.87,1.15,5.36,4.05l2.99,17.58c1.63,9.56,4.19,18.55,8.37,27.61Z" fill="#222832"/><path d="M205.94,191.69c-5.26,4.19-13.09,12.25-16.42,7-.92-1.44-.9-4.03.86-5.44,3.59-2.88,7.07-5.66,10.84-8.34,1.93-1.37,4.61-.6,5.67.91,1.32,1.88.95,4.37-.94,5.87Z" fill="#222832"/><path d="M107.7,194.13c2.45-.74,4.39.7,4.92,2.28.76,2.28-.51,4.49-2.08,5.03-2.33.8-4.32-.11-5.09-1.76-1-2.13-.43-4.74,2.25-5.56Z" fill="#fb7447"/></svg>