<?xml version="1.0" encoding="UTF-8"?><svg id="Layer_1" xmlns="http://www.w3.org/2000/svg" viewBox="0 0 260 318"><path d="M201.53,190.9c-6.01-2.58-11.53-6.14-18.59-6.6-10.23-.67-20.54,3.41-27.42,11.05-15.49,17.19-11.07,53.69.52,49.12,5.17-2.04,9.93-4.75,14.73-7.76-.15.92.37,1.7,1.34,2.27,5.46,3.17,10.13,6.9,14.55,11.41,4.04,4.13,8.89,7.74,11.51,13.16,5.1,10.59,7.31,22.39,7.7,34.19.25,7.38-1.15,14.44-2.82,21.35-1.84,7.61-9.7,5.19-14.28,5.68-9.94,1.07-19.57,1.19-29.65,1.16-22.35-.07-47.67,8.74-70.59,8.01l-30.87-.98c-10.29-.33-6.94-16.07-5.67-23.2,2.35-13.22,7.09-25.12,12.42-37.43,4.9-11.32,10.36-21.66,17.46-31.3,3.18,2.12,7.56,2.98,10.74,5.44,1.78,1.38,2.17,4.29,5.12,3.68,2.09-.43,4.07-1.83,4.47-4.63,1.28-8.99-.38-18.07-4.28-26.32-2.52-5.32-5.18-10.52-9.6-14.51-11.14-10.06-24.65-13.14-38.71-7.08-4.19-24.58,3.54-42.76,24.34-57.57l-6.58-13.83c-12-25.24-5.18-53.96,18.6-68.7,9.22-5.71,19.54-5.79,29.23-1.66,14.07,6,16.96,11.57,21.26,26.92,12.46-9.45,30.56-17.72,46.08-15.14,14.18,2.36,26.05,15.33,26.66,29.85.42,10.1-3,20.21-7.92,28.56-3.99,6.77-10.77,10.79-17.12,15.58,12.76,14.17,22.04,29.89,17.39,49.26ZM91.45,124.02c1.73,1.2,2.2,3.91,4.99,3.25,1.7-.4,3.3-1.03,4.11-3.23,1.37-3.71,2.8-7.29,3.89-11.16,1.97-6.94,5.44-26.63-3.64-29.23-3.02-.86-6.2-.07-8.35,2.2-1.71,1.8-3.98,4.12-4.95,6.49-3.31,8.12-2.62,16.83-1.22,25.15.61,3.64,2.27,4.54,5.18,6.55ZM174.41,104.88c.43-2.88.87-6.23-.06-9.13-.97-3.05-6.23-5.58-9.34-4.63-21,6.39-31.8,31.14-24.05,36.64s31.73-11.24,33.45-22.88ZM185.79,279.19c1.26-4.08-.74-7.53-3.78-9.47-3.36-2.15-6.79-.2-10.01,1.38-2.22-1.19-4.63-4.52-8.05-3.37-4.4,1.48-6.82,6.03-5.99,10.9,1.01,5.91,4.28,11.71,9.45,14.93,2.16,1.34,15.14-3.93,18.37-14.37Z" fill="#f8c099"/><path d="M201.53,190.9c.66.93,1.52,1.99,2.02,2.46,3.35,3.09.97,5.77-.55,8.41-4.5,7.81-9.01,15.06-15.68,21.39-5.29,5.03-10.3,10.27-16.57,13.56-4.8,3.01-9.56,5.72-14.73,7.76-11.59,4.57-16-31.93-.52-49.12,6.88-7.64,17.19-11.72,27.42-11.05,7.06.46,12.59,4.02,18.59,6.6Z" fill="#fb7447"/><path d="M81.86,241.04c-13.97-9.3-25.99-20.14-34.56-34.15-1.13-1.85-1.94-3.62-1.34-5.59.49-1.6,2.06-2.83,3.64-3.68,14.06-6.07,27.57-2.98,38.71,7.08,4.42,3.99,7.08,9.19,9.6,14.51,3.91,8.25,5.56,17.33,4.28,26.32-.4,2.8-2.38,4.2-4.47,4.63-2.95.61-3.34-2.3-5.12-3.68-3.17-2.47-7.56-3.33-10.74-5.44Z" fill="#fb7447"/><path d="M174.41,104.88c-1.73,11.64-25.65,28.42-33.45,22.88s3.05-30.25,24.05-36.64c3.11-.95,8.37,1.59,9.34,4.63s.49,6.25.06,9.13Z" fill="#fb7447"/><path d="M91.45,124.02c-2.9-2.01-4.57-2.9-5.18-6.55-1.4-8.32-2.08-17.02,1.22-25.15.96-2.37,3.24-4.68,4.95-6.49,2.15-2.27,5.33-3.06,8.35-2.2,9.08,2.6,5.61,22.29,3.64,29.23-1.1,3.87-2.53,7.45-3.89,11.16-.81,2.2-2.4,2.83-4.11,3.23-2.78.66-3.26-2.06-4.99-3.25Z" fill="#fb7447"/><path d="M185.79,279.19c-3.23,10.44-16.21,15.72-18.37,14.37-5.18-3.22-8.45-9.02-9.45-14.93-.83-4.86,1.59-9.42,5.99-10.9,3.42-1.15,5.83,2.17,8.05,3.37,3.22-1.58,6.65-3.53,10.01-1.38,3.04,1.94,5.04,5.38,3.78,9.47Z" fill="#fb7447"/><path d="M46.21,207.7c-1.68-4.34-7.09-20.04.79-20.01,7.26.03.8,9.64,11.79,26.04,4.92,7.34,11.07,14.02,18.5,19.02,14.28,9.6,37.34,12.38,53.95,10.39,13.5-1.62,26-5.21,37.76-11.69,12.64-6.97,23.64-16.06,28.93-29.92,3.78-13.19,3.28-27.37-3.16-39.73-4.72-9.07-12.05-15.92-19.78-23.12,8.84-6.52,17.28-12.79,24.41-20.55,6.53-7.1,7.11-16.72,4.6-25.69-1.94-4.25-3.72-8.73-7.02-12.21-15.29-16.13-39.35-10.18-53.69,2.84-4.96,4.5-9,9.91-12.26,15.67-6.12,10.8-5.59,20.83-11.97,19.42-1.75-.39-3.73-2.89-2.95-5.29,2.69-8.25,6.11-15.71,9.93-23.54,2.68-5.49,4.39-12.1,2.31-18.07-2.74-7.87-10.1-13.05-17.81-14.81-8.28-1.89-15.53.16-22.23,4.59-9.74,6.44-16.62,14.97-20.75,25.91-3.83,10.13-5.34,20.67-2.39,31.27,4.62,16.6,13.22,18.26,13.29,22.91.1,6.71-13.82,8.17-23.57,30.44-.71,1.62-3.56,2.37-4.86,1.96-1.75-.55-3.54-3.12-2.71-5.19,4.05-10.08,10.27-18.56,18.78-25.32.71-.56,1.08-2.98.51-3.68-12.57-15.68-14.29-35.93-7.36-54.41,5-13.31,13.2-23.68,25.09-31.4,7.98-5.18,16.2-7.5,25.8-5.78,10.18,1.82,19.12,6.89,24.49,16.21l4.98,8.65c1.27.08,3.38-.34,4.56-1.04,10.37-6.18,22.08-10.65,34.28-9.87,20.36,1.3,35.27,17.87,35.53,37.87.08,5.82-.49,11.15-3.13,16.29-7.88,15.36-21.51,21.2-21.84,23.34-.27,1.75,9.41,10.83,13.34,18.78,6.92,13.98,8.22,29.99,3.89,44.89-4.14,14.23-15.43,24.52-27.52,33.26,22.89,7.45,33.1,32.74,33.7,54.77.3,10.84-1.53,21.42-4.31,31.6-.79,2.89-4.19,4.12-6.32,3.21-2.76-1.18-2.84-3.61-2.08-6.43,5.37-19.9,5.92-39.44-4.16-57.9-5.68-10.4-15.82-16.97-27.45-17.99l-25.05,12.23c-12.02,5.87-25.29,8.66-38.68,7.66-9.37-.7-17.63-4.44-25.94-8.42-14.57,12.92-20.52,37.83-22.02,56.57-.99,12.41,3.55,21.09-2.71,22.5-1.85.42-4.92-1.04-5.27-3.72-.96-7.39-1.55-14.9-.7-22.42,2.72-24.13,9.91-49.64,30.97-64.82-13.95-6.3-27.29-21.86-32.5-35.29Z" fill="#222832"/><path d="M151.52,100.07c3.04,4.2-6.97,6.49-10.83,21.56-.23.9.08,3.05.62,3.74,2.99,3.83,14.9-2.51,18.57-4.58,7.91-4.45,17.22-13.89,10.63-22.92-3.78-5.19-10.96-.13-11.43-5.41-.17-1.91,1.14-3.7,3.11-4.13,4.85-1.06,9.37.59,12.83,3.85,7.72,7.28,5,22.1-5.51,30.26-7.85,6.1-24.7,16.59-33.31,7.9-7.29-7.36,3.69-24.77,9.81-30.82,1.47-1.45,4.28-1.16,5.51.53Z" fill="#222832"/><path d="M88.54,114.79c.73,3.44,2.91,10.33,6.51,10.68.84.08,2.58-1.17,2.88-2.16,3.21-10.39,6.77-24.03,3.57-34.72-.57-1.89-3.16-3.92-4.94-2.92-7.72,4.36-5.23,12.1-11.12,10.65-5.64-1.38.24-13.08,8.11-17.15,4.89-2.53,10.76-.01,13.45,4.72,6.09,10.73,1.54,30.14-2.4,41.35-1.23,3.49-3.87,6.5-7.5,7.77-4.99,1.74-15.74-7.86-15.92-18.7-.03-1.55,2.53-3.33,3.8-3.41,1.87-.11,3.13,1.82,3.56,3.88Z" fill="#222832"/><path d="M78.16,340.05c.06,1.78-3.54,2.63-4.73,2.12-1.3-.56-3.91-2.37-4.02-4.24-.94-15.27.62-30.34,3.5-45.45.86-4.51,4.18-18.62,10.56-15.35,4.94,2.53.97,6.62-1.15,15.78-3.59,15.51-4.7,30.65-4.16,47.15Z" fill="#222832"/><path d="M157.02,327.65c1.03,2.47-.77,5.03-2.43,5.6-2.27.78-4.73-.12-5.84-2.57-4.2-9.27-7.05-18.81-8.78-28.92l-3.32-19.32c.66-2.44,2.19-4.3,4.38-4.43s4.17,1.63,4.57,3.97l3.1,17.99c1.65,9.6,4.46,18.42,8.32,27.69Z" fill="#222832"/><path d="M119.49,189.12c1.66,1.24,1.94,4.14,1,5.73-1.81,3.05-8.49,3.96-10.77.4-1.12-1.75-.59-4.59,1.24-6.02,2.34-1.82,5.89-2.09,8.54-.11Z" fill="#222832"/><path d="M47.65,176.64c1.93-.19,4.06,1.62,4.4,3.07.59,2.52-1.02,4.75-3.05,5.11-2.46.43-4.57-1.08-4.98-3.34s.86-4.57,3.63-4.84Z" fill="#222832"/><path d="M115.25,123.29c2.31-1.07,4.82.48,5.47,2.25.71,1.96-.17,4.45-2.03,5.3s-4.42-.08-5.25-1.7c-.97-1.9-.53-4.77,1.81-5.86Z" fill="#222832"/><path d="M84.76,98.47c1.49-.08,3.28,1.68,3.3,2.96.03,1.72-1.26,3.41-2.81,3.62s-3.32-1.16-3.58-2.37c-.46-2.08.69-4.07,3.09-4.2Z" fill="#222832"/><path d="M153.19,92.39c1.28-.85,3.67-.51,4.57.59s.79,3.55-.41,4.56-3.64.87-4.54-.18c-1.12-1.3-1.09-3.99.38-4.97Z" fill="#222832"/></svg>