<?xml version="1.0" encoding="UTF-8"?><svg id="Layer_1" xmlns="http://www.w3.org/2000/svg" viewBox="0 0 260 318"><path d="M178.25,218.83c.39-4.46-11.47-11.46-22.11-9.73-9.37,1.53-16.32,8.53-17.74,17.87-.78,5.1-.38,20.02,6.65,19.17,5.51-.67,2.65-8.03,4-9,1.42-1.02,3.66.35,5.21-.35,2.23-1.01,4.09-2.44,6.81-2.27,2.36-1.35,11.18-14.32,12.34-11.51-4.5,7.43-11.14,12.33-19.04,17.22,5.85-.7,10.16-1.61,14.84,1.08,2.36,1.95,5.49,2.16,8.23,3.31,9.08,3.82,15.73,11.49,20.29,19.98,3.09,5.76,6.9,11,7.68,17.55l2.04,17.16c.86,7.24-1.19,14.07-2.42,21.12-.52,2.96-.45,5.46-4.08,6.24-5.25,1.13-10.63,1.79-16.16,2.24l-53.15,4.27-25.94,2.8c-5.67.61-45.83,1.67-49.35-2.33-1-1.13-.54-3.58-.43-5.27-11.09-11.19-.81-11.99-.59-30.56.14-11.39,5.4-21,11-30.5,3.43-5.81,10.34-19.25,19.55-14.81,5.35,2.57,11.44,5.79,17.73,5.51,6.74-.29,13.13-1.3,19.79-2.31,4.01-.61,8.45-2.9,11.54-5.22,2.41-1.81,3.76-3.98,6.59-5.41-16.53,3.95-36.18,5.46-49.74-5.07,4.36-13.6-4.02-30.35-16.38-37.78-3.04-1.83-6.31-2.61-9.4-1.85,1.43-5.75,4.25-11.05,6.15-16.99,1.03-3.23.83-6.87,1.22-10.36.75-6.84-4.69-13.44-3.29-26.08.9-8.14,2.56-15.92,5.31-23.53,3.11-8.61,12.13-13.44,20.48-15.79l17.01-4.79c9.52-2.68,18.12-1.94,27.44.52,9.07,2.39,17.48,4.62,25.58,9.66s16.1,11.86,20.25,21.28c4.67,10.58,6.55,21.91,7.77,33.12,3.94-1.46,8.2-2.71,11.95-1.24,9.94,3.89,14.05,14.57,10.7,24.46-3.7,10.92-11.6,19.17-22.02,24.11-5.3,2.51-10.61,4.26-16.28,4.1ZM154.34,240.53c0-.19-.15-.34-.34-.34s-.34.15-.34.34.15.34.34.34.34-.15.34-.34ZM152.03,241.9c0-.24-.19-.44-.44-.44s-.44.19-.44.44.19.44.44.44.44-.19.44-.44Z" fill="#815546"/><path d="M178.25,218.83c-.25,2.9-2.69,4.17-4.86,4.17-1.16-2.81-9.98,10.16-12.34,11.51-2.72-.17-4.58,1.26-6.81,2.27-1.55.7-3.78-.67-5.21.35s1.51,8.33-4,9c-7.02.86-7.42-14.07-6.65-19.17,1.42-9.34,8.37-16.34,17.74-17.87,10.64-1.73,22.5,5.27,22.11,9.73Z" fill="#fb7447"/><path d="M91.75,239.99c-.84.21-1.73.37-2.65.11-.82-.23-.86-1.49-1.51-2.24-2.07-2.4-5.03-3.35-6.59-5.8-3.59-5.64-14.03-12.17-15.77-28.79l.72-2.91c3.09-.76,6.36.03,9.4,1.85,12.36,7.42,20.74,24.18,16.38,37.78Z" fill="#fb7447"/><path d="M81.01,232.06c-5.97-3.5-10.66-8.86-13.12-15.69-5.31-3.29-3.79-8.5-2.65-13.1,1.74,16.62,12.18,23.15,15.77,28.79Z" fill="#815546"/><circle cx="151.6" cy="241.9" r=".44" fill="#f0f"/><circle cx="154" cy="240.53" r=".34" fill="#f0f"/><path d="M156.72,243.43c-12.87,7.5-25.99,12.89-40.24,16.19-10.49,2.43-25.81-2.38-36.42-6.05-15.93,12.83-21.92,38.21-23.6,57.76-1.07,12.41,3.88,22.24-3.28,22.66-2.15.13-4.52-1.5-4.83-4.13-.78-6.49-1.38-13.03-.79-19.76,1.73-19.77,8.41-46.97,23.51-60.59l9.32-8.4c-2.13-2.36-4.85-3.6-7.06-5.66-7.62-7.11-11.34-17.06-12.09-27.43-1.14-15.91,6.24-22.86,5.39-34.98-.26-3.7-1.57-6.99-2.27-10.64-2.93-15.22-.04-30.8,9.54-43.16,4.95-6.39,11.59-10.44,18.93-13.79,28.94-13.18,63.7-11.44,87.99,10.22,13.86,12.49,17.05,28.2,17.88,46.64,10.41-2.24,19.88,3.45,22.48,13.66,3.57,14.04-2.04,30.57-14.67,38.8-7.21,4.04-14.93,5.92-23.49,6.06-3.74,4.98-7.93,8.72-13.02,13.58,11.61,1.44,21.03,6.31,28,14.87,16.8,20.62,17.05,48.46,10.25,72.94-.8,2.88-3.91,4.32-5.84,3.74-3.58-1.09-3.47-3.98-2.64-7.01,5.44-19.88,5.74-40.58-4.93-58.72-7.88-13.4-22.45-18.71-38.12-16.79ZM202.28,207.3c14.22-9.31,14.52-32.72,5.25-35.98-7.38-2.6-14.8,2.43-17.48,9.25-1.13,2.86-4.65,3.49-6.57,2.62-7.31-3.34,3.88-13.91,6.29-17.23,1.1-8.18-.44-16.44-2.51-24.36-5.76-22.1-30.5-34.62-52.18-35.84-16.19-.91-32.47,2.82-45.94,11.44-7.83,5.01-12.84,12.03-15.48,20.58-5.21,16.9,1.28,27.93,1.57,35.25.27,6.67-1.63,13.36-3.67,19.59-5.51,16.8-.02,36.19,17.39,43.91,19.77,8.77,42.61,7.6,62.36-.71,10.79-4.54,19.29-12.62,26.17-21.79,2.95-3.93,12.99,1,24.79-6.72Z" fill="#222832"/><path d="M78.19,340.19c.07,1.94-4.2,2.53-5.36,1.75s-3.39-2.09-3.52-4.33c-.81-14.78,1.01-45.27,8.21-58.47,1.21-2.21,3.76-2.97,6.04-1.96,1.89.84,3.24,3.81,1.92,6.11-1.76,3.06-2.22,6.06-3.04,9.46-3.75,15.6-4.83,31.2-4.26,47.46Z" fill="#222832"/><path d="M157.03,327.36c1.29,2.79-.66,5.34-2.77,6.07-2.47.85-4.47-.56-5.66-3.06-6.85-14.43-9.14-31.37-11.79-46.94-.46-2.7,1.42-4.92,3.49-5.31,2.82-.52,4.87,1.15,5.36,4.05l2.99,17.58c1.63,9.56,4.19,18.55,8.37,27.61Z" fill="#222832"/><path d="M205.94,191.69c-5.26,4.19-13.09,12.25-16.42,7-.92-1.44-.9-4.03.86-5.44,3.59-2.88,7.07-5.66,10.84-8.34,1.93-1.37,4.61-.6,5.67.91,1.32,1.88.95,4.37-.94,5.87Z" fill="#222832"/><path d="M107.7,194.13c2.45-.74,4.39.7,4.92,2.28.76,2.28-.51,4.49-2.08,5.03-2.33.8-4.32-.11-5.09-1.76-1-2.13-.43-4.74,2.25-5.56Z" fill="#fb7447"/></svg>