<?xml version="1.0" encoding="UTF-8"?><svg id="Layer_1" xmlns="http://www.w3.org/2000/svg" viewBox="0 0 260 318"><path d="M178.36,218.94c.57-4.08-10.69-11.35-21.22-10.06-8.44,1.04-15.44,6.47-17.96,14.55-2.45,7.84-1.13,24.64,6.42,22.66,5.2-1.36,1.96-8.79,3.46-8.9l5.12-.36c2.13-.15,4.76-1.28,6.7-2.46,5.13-3.12,10.25-13.33,12.48-11.37-4.21,7.09-10.52,11.79-18.26,16.85,5.67-.36,10.42-1.22,14.94,1.98,2.24,1.58,5,1.68,7.45,2.75,9.02,3.92,15.67,11.48,20.23,20,3.08,5.76,6.9,10.99,7.67,17.55l2.04,17.16c.89,7.46-1.3,14.42-2.54,21.53-.48,2.77-.42,5.07-4,5.84-4.59.99-9.39,1.67-14.37,2.07l-54.91,4.42-24.66,2.72c-5.96.66-47.07,1.81-50.62-2.21-1.09-1.24-.59-3.59-.45-5.29-11.1-11.2-.8-12.04-.6-30.56.13-11.41,5.38-21.01,11-30.5,3.42-5.78,10.34-19.27,19.55-14.82,16.36,7.9,17.76,5.85,37.5,3.24,3.26-.43,13.79-4.69,15.02-9.73-16.76,2.96-33.57,4.04-46.58-5.99,5.84-14.69-8.89-40.63-25.28-40.08.62-4.23,2.4-8.35,4.24-12.56,2.78-6.33,3.47-16.89,1.16-23.69-4.22-12.41-.89-28.2,3.43-40.28,3.65-10.24,14.96-14.39,24.7-17,6.76-1.81,13.28-3.89,20.16-5.17,7.19-1.34,13.7.75,20.6,2.33,8.83,2.02,16.79,4.51,24.62,9.2,8.72,5.23,16.46,11.97,20.7,21.52,4.7,10.59,6.56,21.91,7.77,33.12,3.95-1.45,8.23-2.71,11.98-1.24,9.75,3.81,13.97,14.28,10.81,24.06-5.39,16.7-21.68,27.89-38.3,28.73ZM152.03,241.9c0-.24-.19-.44-.44-.44s-.44.19-.44.44.19.44.44.44.44-.19.44-.44ZM139.26,246.02c0-.19-.15-.34-.34-.34s-.34.15-.34.34.15.34.34.34.34-.15.34-.34Z" fill="#f8c099"/><path d="M178.36,218.94c-.39,2.8-2.73,4.03-5,4.07-2.23-1.96-7.35,8.25-12.48,11.37-1.94,1.18-4.57,2.31-6.7,2.46l-5.12.36c-1.5.11,1.74,7.54-3.46,8.9-7.55,1.98-8.87-14.82-6.42-22.66,2.52-8.08,9.53-13.52,17.96-14.55,10.53-1.3,21.79,5.98,21.22,10.06Z" fill="#fb7447"/><path d="M91.78,239.99c-.85.21-1.82.4-2.51.25-1.13-.24-.84-1.96-1.59-2.57l-7.23-5.9c-5.28-4.31-10.48-8.71-12.36-15.53-6.24-1.84-3.5-14.42-1.59-16.34,16.39-.54,31.12,25.4,25.28,40.08Z" fill="#fb7447"/><circle cx="151.6" cy="241.9" r=".44" fill="#f0f"/><circle cx="138.91" cy="246.02" r=".34" fill="#f0f"/><path d="M156.72,243.43c-12.87,7.5-25.99,12.89-40.24,16.19-10.49,2.43-25.81-2.38-36.42-6.05-15.93,12.83-21.92,38.21-23.6,57.76-1.07,12.41,3.88,22.24-3.28,22.66-2.15.13-4.52-1.5-4.83-4.13-.78-6.49-1.38-13.03-.79-19.76,1.73-19.77,8.41-46.97,23.51-60.59l9.32-8.4c-2.13-2.36-4.85-3.6-7.06-5.66-7.62-7.11-11.34-17.06-12.09-27.43-1.14-15.91,6.24-22.86,5.39-34.98-.26-3.7-1.57-6.99-2.27-10.64-2.93-15.22-.04-30.8,9.54-43.16,4.95-6.39,11.59-10.44,18.93-13.79,28.94-13.18,63.7-11.44,87.99,10.22,13.86,12.49,17.05,28.2,17.88,46.64,10.41-2.24,19.88,3.45,22.48,13.66,3.57,14.04-2.04,30.57-14.67,38.8-7.21,4.04-14.93,5.92-23.49,6.06-3.74,4.98-7.93,8.72-13.02,13.58,11.61,1.44,21.03,6.31,28,14.87,16.8,20.62,17.05,48.46,10.25,72.94-.8,2.88-3.91,4.32-5.84,3.74-3.58-1.09-3.47-3.98-2.64-7.01,5.44-19.88,5.74-40.58-4.93-58.72-7.88-13.4-22.45-18.71-38.12-16.79ZM202.28,207.3c14.22-9.31,14.52-32.72,5.25-35.98-7.38-2.6-14.8,2.43-17.48,9.25-1.13,2.86-4.65,3.49-6.57,2.62-7.31-3.34,3.88-13.91,6.29-17.23,1.1-8.18-.44-16.44-2.51-24.36-5.76-22.1-30.5-34.62-52.18-35.84-16.19-.91-32.47,2.82-45.94,11.44-7.83,5.01-12.84,12.03-15.48,20.58-5.21,16.9,1.28,27.93,1.57,35.25.27,6.67-1.63,13.36-3.67,19.59-5.51,16.8-.02,36.19,17.39,43.91,19.77,8.77,42.61,7.6,62.36-.71,10.79-4.54,19.29-12.62,26.17-21.79,2.95-3.93,12.99,1,24.79-6.72Z" fill="#222832"/><path d="M78.19,340.19c.07,1.94-4.2,2.53-5.36,1.75s-3.39-2.09-3.52-4.33c-.81-14.78,1.01-45.27,8.21-58.47,1.21-2.21,3.76-2.97,6.04-1.96,1.89.84,3.24,3.81,1.92,6.11-1.76,3.06-2.22,6.06-3.04,9.46-3.75,15.6-4.83,31.2-4.26,47.46Z" fill="#222832"/><path d="M157.03,327.36c1.29,2.79-.66,5.34-2.77,6.07-2.47.85-4.47-.56-5.66-3.06-6.85-14.43-9.14-31.37-11.79-46.94-.46-2.7,1.42-4.92,3.49-5.31,2.82-.52,4.87,1.15,5.36,4.05l2.99,17.58c1.63,9.56,4.19,18.55,8.37,27.61Z" fill="#222832"/><path d="M205.94,191.69c-5.26,4.19-13.09,12.25-16.42,7-.92-1.44-.9-4.03.86-5.44,3.59-2.88,7.07-5.66,10.84-8.34,1.93-1.37,4.61-.6,5.67.91,1.32,1.88.95,4.37-.94,5.87Z" fill="#222832"/><path d="M107.7,194.13c2.45-.74,4.39.7,4.92,2.28.76,2.28-.51,4.49-2.08,5.03-2.33.8-4.32-.11-5.09-1.76-1-2.13-.43-4.74,2.25-5.56Z" fill="#fb7447"/></svg>