<?xml version="1.0" encoding="UTF-8"?><svg id="Layer_1" xmlns="http://www.w3.org/2000/svg" viewBox="0 0 260 318"><path d="M134.75,336.3c-20.48,1.07-39.98,1.26-59.94.21-2.59-.14-4.87-.07-7.5.3-.94-14.16,1.29-27.94,4.58-41.76,3.59-15.07,8.03-29.3,15.82-42.69.61-1.05,2.42-2.17,3.4-2.58,1.31-.55,3.12,1.71,4.29,1.97,6.21,1.39,13.15,1.53,19.67,1.09,15.2-1.03,22.36-7.06,36.12-10.46,4.71-4.88,27.18-11.63,26.48-2.55-.19,2.44-2.13,4.07-4.87,4.02-11.97-.17-22.57,7.39-25.87,19.07-1.84,6.51-2.57,13.54-1.82,20.27,1.84,16.61,4,25.8,10.2,41.43,1.25,3.14,2.66,9.54-2.62,10.63s-11.6.71-17.95,1.04ZM113.33,296.6c7.13-7.09,12.42-12.26,12.75-21.46.16-4.47-3.35-8.93-8.06-8.35-3.38.42-6.06,3.61-7.21,6.2-2.2-2.66-5.5-4.49-8.84-3.01-2.58,1.14-4.55,4.07-4.93,6.29-1.46,8.47,8.84,15.95,16.29,20.33Z" fill="#222832"/><path d="M113.33,296.6c-7.45-4.37-17.76-11.86-16.29-20.33.38-2.21,2.35-5.15,4.93-6.29,3.34-1.47,6.65.35,8.84,3.01,1.15-2.59,3.83-5.78,7.21-6.2,4.71-.59,8.22,3.88,8.06,8.35-.33,9.2-5.62,14.37-12.75,21.46Z" fill="#fb7447"/></svg>