<?xml version="1.0" encoding="UTF-8"?><svg id="Layer_1" xmlns="http://www.w3.org/2000/svg" viewBox="0 0 260 318"><path d="M93.17,258.03c-1.41-.14-3.24.59-4.7,1.46,2.64,1.05,3.54,3.32,2.69,5.99-.77,2.43-2.2,4.42-3.25,7.09,1.41.81,2.91.06,4.54-.31,17.28-3.9,42.71-3.39,50.06-5.5,2.17-.62,4.16-2.35,6.61-.43l42.76-4.66c-3.45-5.15-7.67-8.29-12.19-11.45-10.64,1.43-20.75,2.11-31.24,3.24l-16.85,1.82c3.49-2.3,7.67-3.44,11.7-5.36l15.36-7.31c1.25-.59,2.25-1.28,2.57-2.24.41-1.25.25-2.39-.5-3.86,2.86-.77,5.78.56,8.89.9l4.43.48c7.4.8,14.03,6.18,19.59,11.76,12.1,12.15,17.96,28.88,17.12,46.07-.46,9.42-1.9,18.23-3.99,27.2-.57,2.44-2.83,3.61-4.72,3.36-2.46-.32-3.98-2.41-3.43-5.12,2.13-10.43,4.01-20.68,3.74-31.77-3.62.13-6.83,1.32-10.41,1.95-13.6,2.39-26.97,3.07-40.93,3.75,1.95,12.96,8.19,21.8,10.41,32.92.45,2.26-1.37,5.05-3.7,4.84-17.05-1.56-53.8,3.1-71.96,5.65-3.44.48-6.95.02-10.09,1.23-1.85.71-2.8,2.7-5.26,1.76-6.1-2.31-3.46-17.81-2.87-24.52.89-10.16,2.27-19.68,5.5-29.55-4.58-.99-8.27-1.72-12.85-2.14-4.56,15.4-6.05,31.3-4.61,47.04.25,2.77.36,5.07-2.82,5.95-8.27,2.28-6.15-18.33-5.96-23.37.8-20.99,6.2-41.32,18.1-58.54,4.81-6.95,10.45-12.71,17.89-16.38l10.65,4.61c-1.64,1.19-3.79.75-4.79,2.19-.18.81,2.1,2.41,2.98,1.99,1.52-.73,1.88-2.61,3.29-3.7l9.56,1.54c-.35,1.35-1.55,1.84-1.7,3.31,8.96,2.3,17.33.16,26.44-1.37-5.14,2.54-10.78,4.87-16.73,4.86-10.89-.03-21.21-2.98-31.58-5.82-1.99-.55-3.71.24-4.3,1.9-2.1,5.87,12.47,7.03,16.54,8.54ZM76.12,278.62l4.72-11.88c-3.94-1.06-7.45-1.44-11.46-1.78-2.29,3.98-4.54,7.69-5.88,12.01l12.62,1.65ZM201.09,280.57c-.67-3.48-1.97-6.17-3.25-9.68l-48.22,3.97c-.56,4.34-.5,7.87.1,11.74,17.34-.62,34.55-1.45,51.37-6.03ZM100.86,298.38l41.61-1.89-1.69-12.67-27.61.84c-10.86.33-21.14,1.45-31.58,3.78-1.3,4.51-2.98,8.58-3.16,13.09l22.43-3.15ZM125.5,322.43c8.58-.32,16.53-.25,25.11-1.06l-5.01-12.57-21.49.77c-16.14.58-31.74,2.36-47.66,4.64-.63,4.65-1.26,8.69-1.14,13.24,16.92-2.58,33.28-4.4,50.19-5.02Z" fill="#222832"/><path d="M93.17,258.03c19.06,1.92,17.57,5.23,38.44-2.75l16.85-1.82c10.49-1.13,20.6-1.81,31.24-3.24,4.52,3.16,8.75,6.3,12.19,11.45l-42.76,4.66c-2.46-1.92-4.44-.19-6.61.43-7.35,2.1-32.78,1.6-50.06,5.5-1.63.37-3.13,1.12-4.54.31,1.05-2.67,2.48-4.66,3.25-7.09.84-2.67-.06-4.94-2.69-5.99,1.46-.86,3.29-1.6,4.7-1.46Z" fill="#fa628b"/><path d="M125.5,322.43c-16.91.63-33.27,2.44-50.19,5.02-.12-4.55.51-8.59,1.14-13.24,15.91-2.28,31.52-4.06,47.66-4.64l21.49-.77,5.01,12.57c-8.57.81-16.52.75-25.11,1.06Z" fill="#fa628b"/><path d="M100.86,298.38l-22.43,3.15c.17-4.51,1.86-8.58,3.16-13.09,10.44-2.33,20.72-3.45,31.58-3.78l27.61-.84,1.69,12.67-41.61,1.89Z" fill="#fa628b"/><path d="M201.09,280.57c-16.83,4.58-34.03,5.4-51.37,6.03-.6-3.86-.66-7.4-.1-11.74l48.22-3.97c1.29,3.51,2.59,6.2,3.25,9.68Z" fill="#fa628b"/><path d="M76.12,278.62l-12.62-1.65c1.34-4.33,3.59-8.03,5.88-12.01,4.01.34,7.52.73,11.46,1.78l-4.72,11.88Z" fill="#fa628b"/></svg>