<?xml version="1.0" encoding="UTF-8"?>
<svg id="Layer_1" xmlns="http://www.w3.org/2000/svg" version="1.1" viewBox="0 0 260 318">
  <!-- Generator: Adobe Illustrator 30.3.0, SVG Export Plug-In . SVG Version: 2.1.1 Build 22)  -->
  <defs>
    <style>
      .st0 {
        fill: #222832;
      }
    </style>
  </defs>
  <g id="Layer_11" data-name="Layer_1">
    <path class="st0" d="M108.5,222l-6.7-6.2c-1.6-1.5-1.6-4.5-.6-5.8,1.8-2.1,4.6-1.9,6.5-.1l5.4,5,8.4-6.5c1.3-1,4.2-.5,5.2.7,1.2,1.4,1.4,4.5-.2,5.8-4.9,4.1-12.6,12-17.9,7.1Z"/>
    <path class="st0" d="M139.6,197.1c-.1,2.4-2.4,4.2-4.2,4.2-2.2,0-4.3-1.9-4.2-4.3l1.1-20.5c.7-2,2.6-3.6,4.5-3.5,2.2.2,4,2.4,3.9,4.8l-1,19.3Z"/>
    <path class="st0" d="M100.8,194.6c0,2.6-1.6,4.5-3.7,4.7-1.7.2-4.5-1.5-4.5-3.7-.2-6.6-.1-12.6.3-19,.1-2.2,2.4-3.9,4.3-3.8,2,0,4,1.9,4,4.2l-.2,17.6h0Z"/>
    <path class="st0" d="M144,167.9c-3.2,2.8-5.8-.8-8.6-1.7-.9-.3-2.5.9-3.5,1.7-1.9,1.4-4.4.6-5.5-1-1.2-1.7-1.1-4.5.7-6.1,5.1-4.8,13.4-3.7,17.6,2,1,1.4.4,4.2-.7,5.1h0Z"/>
    <path class="st0" d="M106.7,165.6c-4,3-6.4-2.3-7.7-2.2-2.5.2-5.7,4.6-9,.8-1.5-1.8-.9-4.7,1.2-6.4,2.6-2,5.7-3.4,9.1-2.9,2.8.4,5.9,2.4,7.4,5.6.8,1.7,0,4.1-1.1,5h0Z"/>
  </g>
</svg>