<?xml version="1.0" encoding="UTF-8"?><svg id="Layer_1" xmlns="http://www.w3.org/2000/svg" viewBox="0 0 260 318"><path d="M100.45,180.29c-2.43,9.57,4.16,18.46-2.23,20.18-8.3,2.24-6.32-15.02-6.45-19.98l-4.64.07c-2.72.04-4.85-1.22-5.09-3.85-.2-2.21,1.75-4.5,4.42-4.59l19.97-.69c1.88-.06,3.86,1.2,4.25,2.63.44,1.6-.52,4.7-2.36,5.05-2.77.53-4.94.79-7.87,1.17Z" fill="#222832"/><path d="M144.4,179.02c-1.69,7.63,4.07,17.85-2.21,19.3-7.5,1.73-5.92-13.52-6.44-18.7l-4.11.18c-2.11.09-4.01-1.9-4.14-3.75s1.4-4.33,3.65-4.49l19.09-1.42c2.44-.18,4.45,1.63,4.57,3.98.09,1.84-1.78,4.08-3.95,4.29l-6.46.61Z" fill="#222832"/><path d="M125.7,219.29l-10.96-6.67-7.04,6.49c-1.18,1.09-3.73.8-4.79-.51-.8-.98-1-3.89.07-4.85l7.81-7.06c1.33-1.21,4.25-1.94,5.94-1.02,4.4,2.38,15.42,7.6,13.89,11.85-.61,1.7-3.11,2.88-4.93,1.77Z" fill="#222832"/></svg>