<?xml version="1.0" encoding="UTF-8"?><svg id="Layer_1" xmlns="http://www.w3.org/2000/svg" viewBox="0 0 260 318"><path d="M135.96,157.57c-4.12,1.89-7.18,4.46-11.41,5.27-8.21,1.56-16-1.76-20.04-9.29-5.18,1.83-25.16,6.99-29,7.54-2.07.29-3.52,1.58-3.68,3.73l-.94,12.83c-.19,2.54-1.94,4.36-4.04,4.61-2.42.29-4.19-1.24-5.02-3.61-3.32-9.57-2.29-19.6-3.44-29.34-.77-6.53-2.37-12.32,1.99-18.5,2.65-3.75,5.94-7.33,9.99-10.17,7.91-5.55,15.65-10.75,24.07-15.6,18.53-10.68,36.57-11.31,56.45-3.85,8.93-.44,16.42,4.5,20.63,12.16l4.77,2.1c2.13.94,2.77,4.83,4.91,6,3.94,1.12,7.1,2.87,9.26,6.6,4.21,7.25,7.07,15.34,8.9,23.68,1.04,4.74-.57,8.83-2.99,12.74l-14.12,22.77c-2.09,3.37-5.68,5.02-9.6,4.15-3.34-.75-6.14-4-6.22-8.12-.25-12.93-.37-25.27-1.51-38.96l-28.97,13.3Z" fill="#573f3b"/><path d="M161.74,183.67l-1.26-32.87c-11.09,7.81-33.48,20.09-46.72,17.7-4.95-.5-9.2-2.69-12.11-6.69-8.31,2.76-16.24,4.73-24.68,4.87,1.35,6.08-6.64,39.43-14.88,25.57-7.4-12.45-12.93-26.71-11.49-41.63,1.19-12.32,7.2-23.99,15.5-32.87,9.49-10.17,20.11-18.25,32.99-23.4,18.72-7.48,34.52-8.07,53.72-1.56,9.83,3.33,18.08,8.91,24.27,17.01,2.24,2.93,5.21,5.07,8.49,6.61,15.58,7.3,18.59,21.59,19.91,37.34,1.37,16.41-5.24,14.77-8.31,18.18-9.18,10.2-11.75,24.93-25.14,23.85-4.98-1.31-10.05-6.06-10.29-12.12ZM122.92,159.49c15.24-4.12,28.22-11.9,39.97-21.73,1.97-1.65,4.64-1.13,6.16.25,1.78,1.62.37,3.6.32,5.61-.24,9.08.19,18.05.5,27.27.17,4.99-.71,15.25,3.58,16.17,1.05.22,3.49-.83,4.13-1.81l11.12-16.93c1.78-2.72,4.15-4.61,7.34-5.97,1.35-10.84-.45-30.86-11.52-36.37-6.21-3.1-11.49-6.48-15.93-11.87-5.31-6.44-12.2-11.26-20.36-13.73-17.21-5.21-29.07-4.42-45.49,1.85-10.03,3.84-18.24,9.89-26.09,17.11-9.2,8.47-16.18,19.6-17.45,32.38-1.02,10.26,2.3,19.98,6.58,29.33,2.77-6.08,2.41-11.97,2.5-18.21.04-2.42,1.77-5.97,4.49-5.6,5.69.78,10.81.82,16.42-.89,3.45-1.05,8.92-1.36,11.15-4.38s3.02-6.78,6.22-9.03c2.04-1.43,4.8-1.51,6.42.39,1.35,1.58,1.23,4.38-.74,6.18s-4.77,5.91-2.27,8.34c2.81,2.74,8.64,2.81,12.97,1.64Z" fill="#222832"/><path d="M120.78,131.45c2.16-.92,4.69.38,5.32,2.15.74,2.08,0,4.5-2.55,5.49-1.37.53-3.74-.25-4.84-2.06-.95-1.57-.43-4.52,2.07-5.58Z" fill="#222832"/></svg>