<?xml version="1.0" encoding="UTF-8"?><svg id="Layer_1" xmlns="http://www.w3.org/2000/svg" viewBox="0 0 260 318"><path d="M134.51,96.92c-2.54.21-5.15.87-8.22.67-1.79-.11-3.24,1.79-3.24,3.06,0,1.47,1.33,3.1,3.22,3.1l19.2-.04c8.71-.02,17.23,1.59,24.62,6.36,8.17,5.27,14.5,12.77,18.65,21.47,2.46,5.15,5.41,9.45,9.7,13.17l14.26,12.36c11.97,10.38,14.64,27.17,6.86,40.84-.79,1.39-1.24,2.62-2.8,2.49-2.65,5.35-3.84,4.08-9.69,4.7,2.16-5.73,2.05-11.93,2.15-18.39.03-2.06-.09-3.87-1.81-4.79-1.46-.78-3.23-.77-4.69,0-3.84,2.02-.43,11.27-3.15,18.42-.41-.69-.69-1.69-1.57-2.05-3.54,3.68-5.94,8.73-10.77,7.36-1.21-.34-2.53-1.48-2.73-3.11,4.11-5.17,7.17-10.95,8.2-17.88.83-5.57,1.33-11.17.88-16.73-.2-2.46-3.35-3.12-4.94-2.79-5.38,1.13-2,8.68-4.78,21.41-2.94,13.43-13.02,12.88-4.95,17.91-.8,1.27-2.29,1.61-3.64,1.52-4.52-.28-3.25-3.31-4.99-4.18-1.21-.61-7.45,2.96-10.95-.77-1.47-1.56-.33-4.05-1.49-5.5,11.21-10.88,15.57-28.79,6.48-42.83-1.51-2.34-2.66-4.98-4.61-6.97-1.23-1.26-4.24-1.04-5.11-3.17-.66-1.64.24-3.92-.63-5.69-3.24-6.58-4.41-13.49-9.23-12.08-2.39.7-3.55,3.29-2.69,5.76,1.48,4.25,3.24,8.39,5.24,12.45.48.96,2.18,1.09,2.35,1.78s.43,2.97-.49,3.34c-5.09,2.05-10.46,3.07-16.29,4.15l-1.4-14.8c-.32-3.41-1.6-6.56-2.4-9.84-.52-2.16-2.24-3.32-3.87-3.46-1.36-.12-4.91.69-4.47,2.89,1.74,8.85,3.63,17.41,3.5,26.63-7.27.94-14.37,1.41-21.7,1.18-.76-6.16,7.27-16.76.76-18.83-2.25-.72-4.62.31-5.53,2.89-1.79,5.05-3.07,9.98-3.85,15.37-4-.28-7.66-.78-11.35-1.86-.21-7.65,2.97-14,7.32-19.89.93-1.25,1.55-2.8.87-4.07-.64-1.18-2.36-2.38-4.24-1.9-1.69.43-4.44,1.56-5.56,3.18-5.42,7.85-7.01,17.13-6.91,26.49-9.3,12.38-16.73,27.78-8.19,41.99-1.85-.38-3.03,1.07-4.6,2.23-1.01.74-3.45.42-3.56,1.89-1.34.26-1.78-.98-2.42-2.1-4.07-7.12-4.79-15.22-1.3-22.69,6.1-13.03,14.05-15.92,13.77-18.66-.12-1.14-.87-2.2-2.29-2.68-2.04-.68-4.32-.03-6.05,1.45-6.94,5.96-12.35,13.54-15.04,22.39-2.63,8.65,0,16.77,3.75,24.43-1.45-.04-2.79.65-4.22.86-5.89-10.26-13.31-17.44-7.75-31.37,8.08-20.21,25.62-28.76,37.63-47.15,5.9-9.05,13.61-15.71,24.32-18.47,5.37-1.38,10.62-3.13,16.25-3.55,1.85-.14,3.28-1.74,3.19-3.45-.07-1.44-1.5-2.37-2.84-3.19,5.27-.87,15.15-3.17,19.86-1.29ZM111.28,130.16c-.03-2.66-2.57-3.58-4.49-3.45-1.48.1-3.55.91-3.6,3.06-.05,2.34,2.03,3.36,3.57,3.5,1.96.18,4.56-.42,4.53-3.11ZM187.58,155.53c.12-2.61-2.4-3.49-4.1-3.57-1.61-.07-3.72.59-4.06,2.62-.41,2.4,1.74,3.6,3.48,3.9,1.85.33,4.57-.41,4.69-2.95ZM202.03,174.03c2.46.06,4.21-1.39,4.03-3.33-.15-1.7-1.82-2.78-3.74-2.81s-3.76,1.05-3.93,2.76c-.19,1.82,1.32,3.33,3.64,3.38ZM215.85,199.34c.45,0,.34-1.65-.14-1.64-.58,0-1.7-.3-2.28.24,0,.68,1.32,1.39,2.42,1.4Z" fill="#be684c"/><path d="M157.83,195.53c-2.08.15-3.88.25-5.28-.96-1.21-1.05-1.12-3.1-.05-4.32,8.54-9.81,11.76-23.65,3.76-35.42-26.79,6.54-47.46,9.43-75.3,5.4-8.53,11.12-15.72,26.04-5.37,37.96,1.74,2,3.17,3.76,5.9,4.64,1.57.5,2.32,2.45,1.8,3.81-1.72,4.48-10.77,1.44-13.92-4.02-1.06-1.84-1.82-3.47-3.55-4.36-8.53-14.2-1.11-29.61,8.19-41.99-.1-9.36,1.49-18.64,6.91-26.49,1.12-1.62,3.87-2.75,5.56-3.18,1.89-.49,3.61.71,4.24,1.9.68,1.26.06,2.81-.87,4.07-4.35,5.89-7.52,12.24-7.32,19.89,3.69,1.07,7.35,1.58,11.35,1.86.78-5.39,2.05-10.32,3.85-15.37.92-2.58,3.28-3.61,5.53-2.89,6.51,2.07-1.52,12.67-.76,18.83,7.33.22,14.43-.24,21.7-1.18.13-9.23-1.75-17.78-3.5-26.63-.43-2.2,3.11-3.01,4.47-2.89,1.63.15,3.34,1.3,3.87,3.46.79,3.28,2.08,6.43,2.4,9.84l1.4,14.8c5.83-1.07,11.2-2.1,16.29-4.15.92-.37.67-2.64.49-3.34s-1.87-.82-2.35-1.78c-2-4.06-3.76-8.2-5.24-12.45-.86-2.47.3-5.06,2.69-5.76,4.82-1.42,5.99,5.5,9.23,12.08.87,1.77-.02,4.05.63,5.69.86,2.14,3.87,1.92,5.11,3.17,1.95,1.98,3.1,4.63,4.61,6.97,9.09,14.04,4.72,31.95-6.48,42.83Z" fill="#222832"/><path d="M216.76,200.4c1.56.13,2-1.1,2.8-2.49,7.78-13.67,5.11-30.47-6.86-40.84l-14.26-12.36c-4.29-3.72-7.24-8.01-9.7-13.17-4.15-8.7-10.48-16.2-18.65-21.47-7.39-4.77-15.92-6.38-24.62-6.36l-19.2.04c-1.89,0-3.22-1.63-3.22-3.1,0-1.27,1.45-3.17,3.24-3.06,3.07.2,5.68-.47,8.22-.67,3.9-.32,7.99.31,12.32.31,23.23-.04,40.45,12.41,50.23,32.83,1.87,3.9,4.17,7.18,7.39,9.97l14,12.14c9.53,8.27,14.96,20.39,13.67,33.16-.58,5.69-5.17,20.33-10.36,20.98-1.69.21-3.64.12-4.61-1.39-.92-1.44-.41-3.17-.39-4.52Z" fill="#222832"/><path d="M114.65,98.22c1.34.81,2.76,1.75,2.84,3.19.09,1.7-1.33,3.31-3.19,3.45-5.63.41-10.88,2.16-16.25,3.55-10.71,2.76-18.41,9.42-24.32,18.47-12.01,18.4-29.55,26.94-37.63,47.15-5.57,13.93,1.85,21.11,7.75,31.37-.42,1.71-2.24,3.75-3.68,3.71-2.33-.06-3.63-.9-4.84-2.73-3.37-5.09-6.89-9.96-8.58-15.98-4-14.25,5.8-30.47,15.28-40.53,2.59-2.75,5.65-4.85,8.51-7.26,18.07-15.23,16.76-25.1,32.46-33.27,10.11-5.26,20.7-9.32,31.65-11.12Z" fill="#222832"/><path d="M57.65,202.38c-.19,2.45-1.14,6.17-4.15,6.71-1.75-.48-4.59-2.85-5.43-4.56-3.74-7.66-6.38-15.77-3.75-24.43,2.69-8.85,8.1-16.43,15.04-22.39,1.73-1.48,4.01-2.13,6.05-1.45,1.42.47,2.17,1.53,2.29,2.68.28,2.74-7.68,5.63-13.77,18.66-3.5,7.47-2.78,15.57,1.3,22.69.64,1.12,1.08,2.36,2.42,2.1Z" fill="#222832"/><path d="M184.5,202.54c-1.16,1.46-4.01,1.54-5.6,1.91-8.06-5.03,2.01-4.47,4.95-17.91,2.78-12.72-.59-20.27,4.78-21.41,1.59-.34,4.74.32,4.94,2.79.45,5.57-.04,11.16-.88,16.73-1.04,6.92-4.09,12.71-8.2,17.88Z" fill="#222832"/><path d="M207.07,205.1c-2.29,1.22-5.59,2.07-7.3-.71-.57-.93-.54-3.13-.19-4.05,2.71-7.15-.69-16.4,3.15-18.42,1.45-.77,3.23-.77,4.69,0,1.72.92,1.84,2.73,1.81,4.79-.11,6.45,0,12.66-2.15,18.39Z" fill="#222832"/><path d="M187.58,155.53c-.12,2.54-2.84,3.27-4.69,2.95-1.73-.31-3.89-1.5-3.48-3.9.35-2.02,2.45-2.69,4.06-2.62,1.7.08,4.22.96,4.1,3.57Z" fill="#222832"/><path d="M111.28,130.16c.03,2.69-2.57,3.29-4.53,3.11-1.54-.14-3.61-1.16-3.57-3.5.04-2.15,2.12-2.96,3.6-3.06,1.93-.13,4.46.79,4.49,3.45Z" fill="#222832"/><path d="M202.03,174.03c-2.32-.06-3.83-1.56-3.64-3.38.18-1.71,2-2.79,3.93-2.76s3.59,1.11,3.74,2.81c.18,1.94-1.57,3.4-4.03,3.33Z" fill="#222832"/></svg>