<?xml version="1.0" encoding="UTF-8"?><svg id="Layer_1" xmlns="http://www.w3.org/2000/svg" viewBox="0 0 260 318"><path d="M135.96,157.57c-4.12,1.89-7.18,4.46-11.42,5.27-8.22,1.57-15.98-1.76-20.03-9.3-4.84,1.76-25.62,7.08-28.99,7.54-2.09.29-3.51,1.59-3.68,3.74l-1.05,13.36c-.18,2.35-2.13,3.85-3.93,4.07-2.52.31-4.2-1.21-5.03-3.6-3.31-9.57-2.3-19.6-3.43-29.35-.76-6.53-2.39-12.33,1.99-18.5,2.56-3.6,5.69-7.12,9.59-9.88,8.02-5.67,15.9-10.97,24.47-15.9,18.56-10.68,36.53-11.3,56.46-3.85,8.92-.43,16.42,4.48,20.63,12.16l4.8,2.1c2.06.9,2.7,5.03,4.99,5.88,3.82,1.43,6.98,2.89,9.17,6.71,4.17,7.26,7.07,15.34,8.89,23.68,1.04,4.75-.56,8.83-2.99,12.74l-14.11,22.76c-2.08,3.36-5.7,5.05-9.61,4.17-3.34-.75-6.14-4.03-6.22-8.14-.25-12.95-.38-25.32-1.51-38.97l-28.97,13.31Z" fill="#fbba27"/><path d="M161.74,183.67l-1.26-32.87c-11.09,7.81-33.48,20.09-46.72,17.7-4.95-.5-9.2-2.69-12.11-6.69-8.31,2.76-16.24,4.73-24.68,4.87,1.35,6.08-6.64,39.43-14.88,25.57-7.4-12.45-12.93-26.71-11.49-41.63,1.19-12.32,7.2-23.99,15.5-32.87,9.49-10.17,20.11-18.25,32.99-23.4,18.72-7.48,34.52-8.07,53.72-1.56,9.83,3.33,18.08,8.91,24.27,17.01,2.24,2.93,5.21,5.07,8.49,6.61,15.58,7.3,18.59,21.59,19.91,37.34,1.37,16.41-5.24,14.77-8.31,18.18-9.18,10.2-11.75,24.93-25.14,23.85-4.98-1.31-10.05-6.06-10.29-12.12ZM122.92,159.49c15.24-4.12,28.22-11.9,39.97-21.73,1.97-1.65,4.64-1.13,6.16.25,1.78,1.62.37,3.6.32,5.61-.24,9.08.19,18.05.5,27.27.17,4.99-.71,15.25,3.58,16.17,1.05.22,3.49-.83,4.13-1.81l11.12-16.93c1.78-2.72,4.15-4.61,7.34-5.97,1.35-10.84-.45-30.86-11.52-36.37-6.21-3.1-11.49-6.48-15.93-11.87-5.31-6.44-12.2-11.26-20.36-13.73-17.21-5.21-29.07-4.42-45.49,1.85-10.03,3.84-18.24,9.89-26.09,17.11-9.2,8.47-16.18,19.6-17.45,32.38-1.02,10.26,2.3,19.98,6.58,29.33,2.77-6.08,2.41-11.97,2.5-18.21.04-2.42,1.77-5.97,4.49-5.6,5.69.78,10.81.82,16.42-.89,3.45-1.05,8.92-1.36,11.15-4.38s3.02-6.78,6.22-9.03c2.04-1.43,4.8-1.51,6.42.39,1.35,1.58,1.23,4.38-.74,6.18s-4.77,5.91-2.27,8.34c2.81,2.74,8.64,2.81,12.97,1.64Z" fill="#222832"/><path d="M120.78,131.45c2.16-.92,4.69.38,5.32,2.15.74,2.08,0,4.5-2.55,5.49-1.37.53-3.74-.25-4.84-2.06-.95-1.57-.43-4.52,2.07-5.58Z" fill="#222832"/></svg>