<?xml version="1.0" encoding="UTF-8"?><svg id="Layer_1" xmlns="http://www.w3.org/2000/svg" viewBox="0 0 260 318"><path d="M134.42,96.89c-.79,2.06-11.34-1.81-11.39,3.81-.01,1.4,1.39,3.12,3.24,3.11l18.49-.1c8.75-.05,17.33,1.39,24.86,6.1,8.39,5.25,14.86,12.9,19.09,21.73,2.47,5.15,5.41,9.45,9.7,13.17l13.91,12.05c13.03,11.28,15.27,29.85,5.04,43.73-.75.86-2.67-5.23-3.59-2.22,1.24.81,2.43,1.78,2.21,3.19-.62,3.99-6.13,3.3-8.93,3.64,2.18-5.71,2.06-11.91,2.16-18.35.03-2.04-.07-3.91-1.8-4.83-1.45-.77-3.25-.79-4.71,0-3.86,2.07-.42,10.94-3.14,18.43-.41-.69-.68-1.7-1.58-2.04-3.68,3.8-5.79,8.69-10.81,7.35-1.16-.31-2.48-1.47-2.69-3.1,3.98-5.02,7.03-10.54,8.11-17.26.93-5.79,1.42-11.57,1-17.4-.14-1.98-2.51-2.83-3.94-2.84-6.73-.05-3.04,7.65-5.56,20.41-2.96,14.96-12.74,12.95-5.77,19.1-1.27.98-2.04,2.08-4.41,1.26-4.11-1.42-1.45-5.76-6.27-3.67-2.43,1.05-6.46.87-8.33-1.11-1.49-1.58-.34-4.05-1.5-5.51,10.88-10.5,15.45-28.05,7.05-41.89-1.64-2.7-3.02-5.55-5.14-7.9-1.17-1.3-4.37-1.03-5.14-3.21-.65-1.83.23-4.26-.81-6.16-3.3-5.99-4.08-13.05-9.06-11.6-2.4.7-3.57,3.3-2.7,5.79,1.48,4.24,3.24,8.39,5.23,12.45.47.96,2.18,1.08,2.36,1.77s.41,2.95-.5,3.32c-5.07,2.05-10.44,3.07-16.27,4.15l-1.39-14.78c-.32-3.41-1.65-6.55-2.4-9.85-.49-2.15-2.35-3.33-3.85-3.47-1.37-.12-4.97.68-4.53,2.9,1.77,8.84,3.64,17.4,3.49,26.61-7.25.93-14.34,1.43-21.66,1.19-.76-6.09,7.28-16.79.76-18.83-2.25-.7-4.63.3-5.55,2.89-1.79,5.06-3.06,9.98-3.86,15.37-3.94-.3-7.6-.74-11.26-1.85-.3-7.45,2.78-13.7,6.98-19.47,1.01-1.38,1.95-3.02,1.16-4.49-.63-1.18-2.37-2.39-4.26-1.9-1.69.44-4.45,1.56-5.56,3.18-5.43,7.86-7.02,17.13-6.92,26.51-9.29,12.32-16.73,27.87-8.18,41.98-1.85-.39-3.02,1.07-4.6,2.23-1,.74-3.46.42-3.56,1.89-1.31.13-1.8-1.04-2.45-2.17-3.74-6.61-4.74-14.17-1.79-21.33,5.74-13.94,14.64-17.01,14.31-19.94-.12-1.04-.77-2.18-2.13-2.66-7.15-2.53-17.03,13.52-19.65,19.24-3.8,8.3-3.46,17.43.66,25.53.63,1.25,1.24,2.33,1.35,3.5-1.42-.04-2.71.64-4.1.83-5.87-10.27-13.28-17.41-7.73-31.36,8.05-20.21,25.66-28.8,37.62-47.16,6-9.21,13.93-15.91,24.85-18.62,5.2-1.29,10.29-3,15.73-3.43,1.92-.15,3.29-1.59,3.17-3.43-.09-1.39-1.44-2.38-2.8-3.17l7.44-1.29c4.28-.74,8.33-1.08,12.28-.04ZM111.37,130.24c.02-2.35-2.32-3.52-4.04-3.55s-4.11.77-4.15,3.08c-.05,2.5,2.23,3.54,4.2,3.6,1.6.05,3.96-.74,3.99-3.12ZM187.6,155.53c.12-2.61-2.43-3.54-4.12-3.61s-3.76.64-4.09,2.68c-.39,2.4,1.81,3.61,3.5,3.9,1.86.32,4.6-.45,4.71-2.97ZM205.81,169.72c-.78-1.71-2.99-1.95-4.32-1.81-1.13.12-2.78.85-3.05,2.47-.43,2.62,1.98,3.82,4.16,3.66,1.96-.14,4.44-1.6,3.21-4.31Z" fill="#fbba27"/><path d="M157.83,195.54c-2.08.14-3.89.25-5.29-.97-1.22-1.05-1.12-3.1-.05-4.32,8.54-9.81,11.76-23.65,3.76-35.42-26.8,6.53-47.5,9.45-75.3,5.4-8.48,11.01-15.76,26.17-5.35,37.95,1.62,1.83,2.87,3.68,5.45,4.42,1.65.48,2.65,2.02,2.37,3.54-.23,1.27-1.62,2.69-3.48,2.66-4.14-.06-8.47-2.52-10.58-6.19-1.06-1.84-1.82-3.48-3.56-4.37-8.55-14.12-1.11-29.66,8.18-41.98-.1-9.38,1.49-18.64,6.92-26.51,1.12-1.62,3.88-2.74,5.56-3.18,1.89-.49,3.62.72,4.26,1.9.79,1.47-.15,3.11-1.16,4.49-4.2,5.77-7.28,12.01-6.98,19.47,3.66,1.1,7.32,1.54,11.26,1.85.8-5.39,2.07-10.31,3.86-15.37.92-2.59,3.3-3.6,5.55-2.89,6.52,2.04-1.52,12.74-.76,18.83,7.31.23,14.4-.27,21.66-1.19.15-9.21-1.72-17.77-3.49-26.61-.44-2.22,3.16-3.02,4.53-2.9,1.5.13,3.36,1.31,3.85,3.47.76,3.3,2.08,6.44,2.4,9.85l1.39,14.78c5.83-1.08,11.2-2.09,16.27-4.15.91-.37.68-2.63.5-3.32s-1.89-.81-2.36-1.77c-1.99-4.06-3.75-8.21-5.23-12.45-.87-2.49.3-5.09,2.7-5.79,4.98-1.45,5.76,5.61,9.06,11.6,1.05,1.9.17,4.33.81,6.16.77,2.18,3.97,1.91,5.14,3.21,2.11,2.35,3.5,5.21,5.14,7.9,8.4,13.85,3.83,31.39-7.05,41.89Z" fill="#222832"/><path d="M217.38,200.49c10.23-13.88,7.99-32.44-5.04-43.73l-13.91-12.05c-4.29-3.72-7.23-8.02-9.7-13.17-4.24-8.83-10.71-16.49-19.09-21.73-7.53-4.71-16.12-6.15-24.86-6.1l-18.49.1c-1.86,0-3.25-1.71-3.24-3.11.05-5.62,10.59-1.75,11.39-3.81l13.1.28c23.09.49,39.78,12.5,49.55,32.89,1.86,3.89,4.17,7.18,7.38,9.96l14,12.14c9.72,8.43,15.14,20.82,13.6,33.79-.64,5.37-5.11,20.16-10.89,20.44-1.68.08-3.35-.23-4.34-1.85-.87-1.42.21-2.78.56-4.05Z" fill="#222832"/><path d="M114.7,98.22c1.36.79,2.71,1.78,2.8,3.17.12,1.85-1.25,3.28-3.17,3.43-5.45.43-10.53,2.14-15.73,3.43-10.92,2.7-18.85,9.4-24.85,18.62-11.96,18.37-29.57,26.96-37.62,47.16-5.56,13.95,1.86,21.08,7.73,31.36-.51,1.47-1.85,3.52-3.21,3.63-1.71.14-3.7-.34-4.75-1.84-8.72-12.5-13.82-21.85-6.91-37.65,11.16-25.53,22.73-22.06,38.68-46.23,3.97-6.01,8.94-10.64,15.34-13.97,10.11-5.27,20.75-9.21,31.7-11.11Z" fill="#222832"/><path d="M57.65,202.38c-.21,2.81-1.12,5.57-4.12,7.02-2.25-1.34-4.08-3.03-5.58-4.84-.12-1.17-.72-2.25-1.35-3.5-4.12-8.09-4.46-17.22-.66-25.53,2.62-5.73,12.5-21.77,19.65-19.24,1.36.48,2.01,1.62,2.13,2.66.33,2.93-8.57,6-14.31,19.94-2.95,7.17-1.95,14.73,1.79,21.33.64,1.13,1.14,2.3,2.45,2.17Z" fill="#222832"/><path d="M184.51,202.55c-1.38,1.74-4.58,1.07-6.17,2.02-6.96-6.15,2.81-4.15,5.77-19.1,2.53-12.75-1.16-20.46,5.56-20.41,1.44.01,3.8.86,3.94,2.84.41,5.83-.07,11.61-1,17.4-1.08,6.72-4.14,12.24-8.11,17.26Z" fill="#222832"/><path d="M207.07,205.09c-2.4.97-5.49,2.31-7.32-.74-.52-.86-.51-3.08-.17-4.02,2.72-7.5-.72-16.37,3.14-18.43,1.46-.78,3.26-.76,4.71,0,1.73.92,1.83,2.79,1.8,4.83-.09,6.44.02,12.64-2.16,18.35Z" fill="#222832"/><path d="M187.6,155.53c-.11,2.52-2.85,3.3-4.71,2.97-1.69-.29-3.89-1.5-3.5-3.9.33-2.04,2.46-2.76,4.09-2.68s4.24,1,4.12,3.61Z" fill="#222832"/><path d="M111.37,130.24c-.02,2.39-2.39,3.17-3.99,3.12-1.97-.06-4.24-1.1-4.2-3.6.04-2.31,2.37-3.11,4.15-3.08s4.06,1.2,4.04,3.55Z" fill="#222832"/><path d="M205.81,169.72c1.23,2.72-1.25,4.17-3.21,4.31-2.19.16-4.59-1.04-4.16-3.66.26-1.62,1.92-2.34,3.05-2.47,1.33-.14,3.55.09,4.32,1.81Z" fill="#222832"/></svg>